<svg xmlns="http://www.w3.org/2000/svg" viewBox="0 0 240 240">
  <rect width="240" height="240" rx="48" fill="#dff6ff"/>
  <path d="M92 18h56v74h74v56h-74v74H92v-74H18V92h74z" fill="#59636b"/>
  <path d="M120 30v42M120 168v42M30 120h42M168 120h42" stroke="#f7e980" stroke-width="8" stroke-linecap="round" stroke-dasharray="10 11"/>
  <g fill="#ffe45c" stroke="#fff" stroke-width="5" stroke-linejoin="round">
    <path d="M120 39l-22 26h14v25h16V65h14z"/><path d="M201 120l-26-22v14h-25v16h25v14z"/>
    <path d="M120 201l22-26h-14v-25h-16v25H98z"/><path d="M39 120l26 22v-14h25v-16H65V98z"/>
  </g>
  <text x="120" y="137" text-anchor="middle" font-size="54">🚙</text>
</svg>
